<svg width="188" height="230" viewBox="0 0 188 230" fill="none" xmlns="http://www.w3.org/2000/svg">
<path d="M0.5 224.526V6.50817C0.5 3.52597 3.64586 1.59248 6.30658 2.93938L184.986 93.3897C186.332 94.0707 187.18 95.4505 187.18 96.9585V185.283C187.18 187.162 185.872 188.787 184.038 189.19L5.35806 228.433C2.8626 228.981 0.5 227.081 0.5 224.526Z" fill="#222222" stroke="#222222"/>
<path d="M12.291 54.5V20L86.4716 54.5V81L69.7687 75.5V103.5L110.052 113V88.5L94.8231 84V59L168.021 93V114L150.336 108.5V166.5H167.039V183L94.8231 195V173L113 170.5V140H69.7687V174.5L86.4716 173V195L12.291 209V182L30.959 179.5L33.9066 62.5L12.291 54.5Z" fill="white"/>
</svg>
